<?xml version="1.0" standalone="no"?>
<!DOCTYPE svg PUBLIC "-//W3C//DTD SVG 20010904//EN"
 "http://www.w3.org/TR/2001/REC-SVG-20010904/DTD/svg10.dtd">
<svg version="1.0" xmlns="http://www.w3.org/2000/svg"
 width="723.000000pt" height="723.000000pt" viewBox="0 0 723.000000 723.000000"
 preserveAspectRatio="xMidYMid meet">
<metadata>
Created by potrace 1.11, written by Peter Selinger 2001-2013
</metadata>
<g transform="translate(0.000000,723.000000) scale(0.100000,-0.100000)"
fill="#000000" stroke="none">
<path d="M3345 7104 c-415 -41 -716 -112 -1068 -253 -255 -102 -604 -304 -812
-469 -632 -503 -1053 -1142 -1250 -1897 -147 -563 -147 -1187 0 -1750 197
-755 618 -1394 1250 -1897 208 -165 557 -367 812 -469 424 -170 785 -244 1240
-256 399 -10 761 38 1115 148 l99 31 121 116 c67 65 155 158 197 207 159 191
317 467 401 703 50 141 112 384 125 492 1 14 5 48 9 75 8 66 14 117 21 190 3
33 8 74 10 90 26 188 27 750 0 970 -2 17 -6 57 -9 90 -9 88 -15 120 -37 220
-95 424 -269 719 -639 1084 -242 239 -467 409 -1110 837 -267 178 -511 343
-542 366 -32 23 -59 40 -62 37 -2 -2 -11 -137 -20 -299 -10 -162 -22 -309 -27
-326 -14 -46 -42 -67 -189 -145 -398 -210 -699 -477 -934 -829 -188 -282 -246
-494 -176 -654 48 -113 181 -258 353 -387 133 -100 217 -109 502 -55 360 68
603 54 844 -48 80 -34 238 -123 290 -164 l24 -19 -46 -61 c-26 -33 -47 -65
-47 -71 0 -5 -6 -14 -13 -18 -8 -4 -60 -68 -116 -141 l-103 -133 -36 36 c-79
76 -261 142 -422 151 -82 5 -115 2 -245 -26 -316 -67 -349 -73 -435 -71 -116
3 -353 75 -488 148 -255 138 -512 404 -577 597 -119 357 -103 667 51 992 21
43 38 81 38 84 7 35 211 329 299 428 57 64 200 205 272 268 132 115 420 321
545 390 19 10 37 22 38 27 2 4 9 7 15 7 7 0 22 8 34 18 19 14 24 29 28 92 9
133 21 315 30 440 2 36 7 106 10 155 3 50 8 117 11 150 2 33 6 94 8 135 3 42
8 116 11 165 11 146 14 179 14 197 1 13 42 -15 139 -95 135 -111 309 -247 407
-319 27 -20 55 -41 60 -45 116 -98 676 -468 1035 -686 409 -248 751 -508 1020
-777 233 -233 361 -405 496 -664 169 -325 264 -650 318 -1081 33 -262 27 -733
-14 -1030 -6 -38 -12 -88 -15 -110 -2 -22 -7 -51 -10 -65 -5 -26 -21 -113 -30
-165 -3 -16 -8 -38 -11 -47 -3 -9 -7 -26 -9 -37 -20 -104 -128 -455 -189 -615
-14 -38 -25 -71 -23 -73 8 -7 284 276 372 382 541 651 822 1461 802 2314 -14
608 -156 1124 -455 1656 -167 295 -390 575 -661 829 -434 406 -961 692 -1539
836 -283 70 -454 91 -787 95 -154 1 -298 1 -320 -1z m-173 -2597 c59 -29 118
-77 118 -96 0 -6 4 -11 8 -11 5 0 19 -24 32 -52 36 -77 35 -192 -1 -268 -71
-148 -219 -217 -380 -176 -35 9 -65 21 -67 26 -2 6 -9 10 -15 10 -24 0 -100
83 -124 136 -34 75 -40 149 -18 229 9 36 21 65 26 65 5 0 9 6 9 13 0 16 89
107 105 107 7 0 18 7 25 15 7 8 15 13 19 11 3 -2 17 2 31 9 15 8 54 12 100 11
60 -1 87 -7 132 -29z"/>
</g>
</svg>
